<?xml version="1.0" encoding="iso-8859-1"?>
<!-- Uploaded to: SVG Repo, www.svgrepo.com, Generator: SVG Repo Mixer Tools -->
<!DOCTYPE svg PUBLIC "-//W3C//DTD SVG 1.1//EN" "http://www.w3.org/Graphics/SVG/1.1/DTD/svg11.dtd">
<svg fill="#000000" height="800px" width="800px" version="1.1" id="Capa_1" xmlns="http://www.w3.org/2000/svg" xmlns:xlink="http://www.w3.org/1999/xlink" 
	 viewBox="0 0 410.041 410.041" xml:space="preserve">
<g>
	<path d="M380.839,79.887l-16.971-16.971c-3.906-3.904-10.236-3.904-14.142,0c-3.873,3.873-3.9,10.129-0.091,14.042h-22.365
		c-5.522,0-10,4.477-10,10c0,5.523,4.478,10,10,10h22.365c-3.809,3.913-3.782,10.169,0.091,14.042
		c1.953,1.952,4.512,2.929,7.071,2.929c2.56,0,5.118-0.977,7.071-2.929l16.971-16.971C384.744,90.124,384.744,83.792,380.839,79.887
		z"/>
	<path d="M241.503,111c1.953,1.952,4.512,2.929,7.071,2.929s5.118-0.977,7.071-2.929c3.873-3.873,3.899-10.129,0.091-14.042h22.365
		c5.522,0,10-4.477,10-10c0-5.523-4.478-10-10-10h-22.365c3.809-3.913,3.782-10.169-0.091-14.042
		c-3.906-3.904-10.236-3.904-14.143,0l-16.971,16.971c-3.905,3.905-3.905,10.237,0,14.142L241.503,111z"/>
	<path d="M312.685,133.907v-22.365c0-5.523-4.478-10-10-10c-5.522,0-10,4.477-10,10v22.365c-3.913-3.809-10.168-3.782-14.042,0.091
		c-3.905,3.905-3.905,10.237,0,14.143l16.971,16.971c1.953,1.953,4.512,2.929,7.071,2.929s5.118-0.976,7.071-2.929l16.971-16.971
		c3.905-3.905,3.905-10.237,0-14.143C322.853,130.125,316.599,130.098,312.685,133.907z"/>
	<path d="M292.685,40.009v22.365c0,5.523,4.478,10,10,10c5.522,0,10-4.477,10-10V40.009c1.94,1.889,4.453,2.838,6.971,2.838
		c2.56,0,5.118-0.976,7.071-2.929c3.905-3.905,3.905-10.237,0-14.143L309.757,8.805c-3.906-3.905-10.236-3.905-14.143,0
		l-16.971,16.971c-3.905,3.905-3.905,10.237,0,14.143C282.518,43.791,288.772,43.818,292.685,40.009z"/>
	<path d="M262.705,202.71c-5.296,0-10.547,0.937-15.492,2.721c-7.307-13.762-21.777-23.152-38.4-23.152
		c-3.739,0-7.367,0.44-10.83,1.269l-0.016-140.045C197.967,19.516,178.452,0,154.465,0c-11.496,0-22.337,4.443-30.525,12.511
		c-8.176,8.055-12.781,18.808-12.968,30.278l-0.003,0.164v0.163v12.785c-3.47-0.838-7.108-1.285-10.855-1.285
		c-23.987,0-43.502,19.516-43.502,43.504v129.642c-15.785,5.51-29.605,20.189-30.193,41.04
		c-0.917,32.574,1.762,73.801,30.856,103.725c24.543,25.243,62.893,37.514,117.242,37.514c48.934,0,85.145-14.42,107.629-42.859
		c15.791-19.975,24.139-46.874,24.139-77.787l-0.074-43.216C306.209,222.226,286.693,202.71,262.705,202.71z M174.516,390.041
		c-114.588,0-129.867-58.086-128.105-120.675c0.426-15.095,13.402-24.011,24.012-24.011v27.683c0,3.482,2.414,3.887,3.135,3.887
		c0.721,0,3.055-0.396,3.055-3.878c0-3.361,0-174.927,0-174.927c0-12.98,10.521-23.504,23.502-23.504
		c11.91,0,23.287,8.502,23.287,20.35c0.008,0.043-0.086,112.092-0.086,112.092c0,2.114,1.713,3.827,3.828,3.827
		c2.111,0,3.826-1.713,3.826-3.827V43.116C131.178,30.316,141.613,20,154.465,20c12.979,0,23.502,10.524,23.502,23.504l0.02,179.815
		c0,2.083,1.688,3.77,3.769,3.77c2.08,0,3.768-1.687,3.768-3.77l-0.008-0.974c0-11.818,11.484-20.067,23.297-20.067
		c12.982,0,23.455,10.523,23.455,23.504l0.047,17.227c0,2.026,1.643,3.668,3.67,3.668c2.025,0,3.666-1.642,3.666-3.668l-0.012-1.311
		c0-10.748,11.629-18.988,23.066-18.988c12.98,0,23.504,10.523,23.504,23.503l0.074,43.182
		C286.283,329.556,270.664,390.041,174.516,390.041z"/>
</g>
</svg>