<svg version="1.2" xmlns="http://www.w3.org/2000/svg" viewBox="0 0 800 800" width="72" height="72">
	<title>drag (1)</title>
	<style>
		.s0 { fill: #000000 } 
	</style>
	<g>
		<g>
			<g>
				<path class="s0" d="m537.6 292.4c-13.7 0.7-27.2 6.5-36.8 14.6l-0.6-12.7c-1.9-35.4-30.7-61.9-65.7-60-13.7 0.7-27.1 6.5-36.7 14.7-1.9-35.5-30.7-62-65.7-60.1-13.7 0.7-27.1 6.5-36.7 14.7l-5.3-101.4c-1.8-35.5-30.7-62-65.6-60.1-34.9 1.9-60.9 31.2-59.1 66.7l14.9 287.8c-30-46.7-94.8-67.4-142.6-47.1-6.1 1.6-10.9 5.7-17 9.8-18 13.7-15.9 30.1-15.7 35.2-0.8 7.7 0.5 8.9 19 28.2 22.5 24.2 71.4 75 102.9 126.7 2.6 2.4 39.1 56.4 78.7 96.3l1.7 32.9c3.6 69.8 62.7 123.8 131.3 120.2l124.7-6.7c53.7-2.9 107.4-51.5 117.2-105.4 2.9-15.4 6.1-27 10.8-32.4 11.7-15.8 24.8-52.1 22.4-99l-10.5-202.9c-1.8-35.5-30.7-61.9-65.6-60zm-74.3 474.3l-124.8 6.6c-54.8 3-102.1-40.3-105-96.1l-0.6-11.4q3.8 2.5 7.8 4.7c7.8 5.9 14.2 9.4 22 15.3 2.6 1.2 5.2 2.3 7.6 2.2 3.8-0.2 7.5-1.7 8.5-5.6 4.7-5.3 3.1-12.8-2.1-17.6-7.9-7.2-15.7-11.9-23.4-16.6-9-5.8-18-11.6-27-18.7-39.1-37.3-77.6-93.9-77.6-93.9-32.8-53-83-104.9-106.8-130.4-4-4.8-9.3-10.9-12-13.3-0.2-3.8-0.3-6.4 8.2-11.9 4.8-2.8 8.4-5.5 12.1-7 31.9-13.1 86.3-0.8 112.1 39.8l20.8 28.4q0.3 1.1 0.8 2.2l13.8 24.7q4.1 7.4 11.6 7c2.5-0.1 3.8-0.2 4.9-2.8 4.8-2.8 6.9-10.5 4.1-16.7l-9.7-17.4q0-0.6 0-1.2l-17-329.6c-1.1-21.5 14.2-38.9 35.4-40 21.3-1.2 38.3 14.5 39.4 36l10.4 201.6 0.1 1.3 7.8 150.8c0.4 7.6 5.6 12.4 13.1 12 7.5-0.4 12.2-5.7 11.8-13.3l-7.8-150.9v-1.2l-2.6-49.5c-1.1-21.5 14.3-38.9 35.5-40 21.2-1.1 38.3 14.5 39.4 36l2.6 50.7 7.2 139.5c0.4 7.6 5.6 12.4 13.1 12 7.5-0.4 12.2-5.7 11.8-13.3l-7.2-139.5c-1.1-21.5 14.3-38.9 35.5-40 21.2-1.2 38.3 14.5 39.4 36l3.2 63.4 4.6 88.7c0.4 7.6 5.7 12.5 13.2 12.1 7.4-0.4 12.2-5.8 11.8-13.4l-4.6-88.7c-1.1-21.6 14.2-38.9 35.4-40.1 21.3-1.1 38.3 14.5 39.4 36.1l10.5 202.8c1.2 23.6-2.3 42.9-6.9 57-1 1.3-1.9 2.8-2.4 4.5-4.2 16.8-18.9 21.4-46 30.5l-7.4 1.6c-6.2 1.6-9.5 9.4-8 15.7 2.8 4.9 8 8.5 13 8.2q1.8-0.1 3.7-0.2l6.3-0.3c5.6-1.9 11.3-3.8 16.7-5.8q-1.5 6.6-2.6 13.9c-6.5 43.6-50.7 82.8-93.1 85.1z"/>
			</g>
		</g>
	</g>
	<path class="s0" d="m659.1 214.1v-43.6c0-10.8-8.7-19.5-19.5-19.5-10.8 0-19.5 8.7-19.5 19.5v43.6c-7.6-7.4-19.8-7.3-27.4 0.2-7.6 7.6-7.6 20 0 27.6l33.1 33.1c3.8 3.8 8.8 5.7 13.8 5.7 5 0 10-1.9 13.8-5.7l33.1-33.1c7.6-7.6 7.6-20 0-27.6-7.5-7.5-19.7-7.6-27.4-0.2z"/>
	<path class="s0" d="m786 129.9l-33.1-33.1c-7.6-7.7-20-7.7-27.6 0-7.5 7.5-7.6 19.7-0.2 27.3h-43.6c-10.8 0-19.5 8.8-19.5 19.6 0 10.7 8.7 19.5 19.5 19.5h43.6c-7.4 7.6-7.3 19.8 0.2 27.4 3.8 3.8 8.8 5.7 13.8 5.7 5 0 10-1.9 13.8-5.7l33.1-33.1c7.6-7.7 7.6-20 0-27.6z"/>
	<path class="s0" d="m517.2 190.6c3.8 3.8 8.8 5.7 13.8 5.7 5 0 10-1.9 13.8-5.7 7.5-7.6 7.6-19.8 0.1-27.4h43.7c10.8 0 19.5-8.8 19.5-19.5 0-10.8-8.7-19.6-19.5-19.6h-43.7c7.5-7.6 7.4-19.8-0.1-27.3-7.7-7.7-20-7.7-27.6 0l-33.1 33.1c-7.7 7.6-7.7 19.9 0 27.6z"/>
	<path class="s0" d="m620 71.1v43.6c0 10.8 8.8 19.5 19.5 19.5 10.8 0 19.6-8.7 19.6-19.5v-43.6c3.7 3.6 8.6 5.5 13.6 5.5 5 0 9.9-1.9 13.8-5.7 7.6-7.6 7.6-20 0-27.6l-33.2-33.1c-7.6-7.6-19.9-7.6-27.5 0l-33.2 33.1c-7.6 7.6-7.6 20 0 27.6 7.6 7.5 19.8 7.6 27.4 0.2z"/>
</svg>